<?xml version="1.0" encoding="UTF-8"?>
<svg width="48px" height="48px" viewBox="0 0 48 48" version="1.1" xmlns="http://www.w3.org/2000/svg" xmlns:xlink="http://www.w3.org/1999/xlink">
    <title>Illustration / Characters / Indexer - 2</title>
    <defs>
        <linearGradient x1="50.0002525%" y1="0.298943436%" x2="50.0002525%" y2="97.0667389%" id="linearGradient-1">
            <stop stop-color="#FFA801" offset="0%"></stop>
            <stop stop-color="#FFA801" stop-opacity="0" offset="100%"></stop>
        </linearGradient>
        <linearGradient x1="50.0531934%" y1="99.9977555%" x2="49.9830299%" y2="-0.0363250088%" id="linearGradient-2">
            <stop stop-color="#FFA801" stop-opacity="0" offset="0%"></stop>
            <stop stop-color="#FFA801" offset="100%"></stop>
        </linearGradient>
        <linearGradient x1="50.0359354%" y1="100.068918%" x2="50.008675%" y2="-0.04290453%" id="linearGradient-3">
            <stop stop-color="#FFA801" offset="0%"></stop>
            <stop stop-color="#FFFFFF" offset="100%"></stop>
        </linearGradient>
        <linearGradient x1="50.0003143%" y1="0.298871871%" x2="50.0003143%" y2="97.0668418%" id="linearGradient-4">
            <stop stop-color="#FFA801" offset="0%"></stop>
            <stop stop-color="#FFA801" stop-opacity="0" offset="100%"></stop>
        </linearGradient>
        <linearGradient x1="49.5940951%" y1="62.0190161%" x2="49.5940951%" y2="-2.72852722%" id="linearGradient-5">
            <stop stop-color="#FFA801" stop-opacity="0" offset="0%"></stop>
            <stop stop-color="#FFA801" offset="100%"></stop>
        </linearGradient>
        <linearGradient x1="50.0378573%" y1="99.9929064%" x2="50.0063201%" y2="-0.122039773%" id="linearGradient-6">
            <stop stop-color="#FFA801" offset="0%"></stop>
            <stop stop-color="#FFFFFF" offset="100%"></stop>
        </linearGradient>
        <radialGradient cx="50.0000503%" cy="50.000312%" fx="50.0000503%" fy="50.000312%" r="61.7927226%" gradientTransform="translate(0.500001,0.500003),scale(1.000000,0.697631),translate(-0.500001,-0.500003)" id="radialGradient-7">
            <stop stop-color="#FFFFFF" stop-opacity="0" offset="0%"></stop>
            <stop stop-color="#FFFFFF" offset="100%"></stop>
        </radialGradient>
        <radialGradient cx="50%" cy="50%" fx="50%" fy="50%" r="50%" id="radialGradient-8">
            <stop stop-color="#FFA801" offset="0%"></stop>
            <stop stop-color="#FFA801" stop-opacity="0" offset="100%"></stop>
        </radialGradient>
        <radialGradient cx="50%" cy="50%" fx="50%" fy="50%" r="50%" id="radialGradient-9">
            <stop stop-color="#66D8FF" offset="0%"></stop>
            <stop stop-color="#AAEAFF" stop-opacity="0" offset="100%"></stop>
        </radialGradient>
    </defs>
    <g id="Illustration-/-Characters-/-Indexer---2" stroke="none" stroke-width="1" fill="none" fill-rule="evenodd">
        <g id="Indexer-3_2" transform="translate(9.000000, 4.000000)" fill-rule="nonzero">
            <path d="M10.6121103,25.896973 C10.6285151,25.7435676 10.6271595,25.5943243 10.63502,25.4493265 C10.6418527,25.3236831 10.7452484,25.2250352 10.8710741,25.2241119 L13.7268524,25.5294422 C13.8526984,25.5282054 13.9577832,25.6250986 13.9667416,25.7506314 C13.9770757,25.8954627 13.9738114,26.0453541 13.9972978,26.19782 C15.2648546,34.426147 13.3128481,40.1568676 12.6622962,41.5779011 C12.6238685,41.6618569 12.5403336,41.7159957 12.4480046,41.7167917 C12.3556756,41.7175704 12.2712295,41.664864 12.2313757,41.5815757 C11.556713,40.1718157 9.65226811,34.874513 10.6121103,25.896973 Z" id="Path" fill="url(#linearGradient-1)" opacity="0.1"></path>
            <path d="M10.9508984,25.7421703 C10.930418,25.481762 11.1155257,25.2501438 11.3740416,25.2127076 L13.2966216,25.1963265 C13.5539839,25.2283136 13.7426585,25.4540768 13.72844,25.7130292 C14.0424335,31.7305524 13.3218384,35.4579173 12.8390811,37.2043011 C12.8190446,37.4098097 12.6471733,37.5670796 12.4406977,37.5688544 C12.2342222,37.5705994 12.059695,37.4162821 12.0361584,37.2111449 C11.523707,35.4732162 10.7396865,31.7586708 10.9508984,25.7421703 Z" id="Path" fill="url(#linearGradient-2)" opacity="0.5"></path>
            <path d="M11.5358308,25.0187568 C11.5393984,24.8563908 11.5433346,24.7029378 11.5473957,24.553433 L13.2472703,24.5389486 C13.2538762,24.6883584 13.2604108,24.8417222 13.2667849,25.0040049 C13.5711103,32.7531184 12.4852319,34.8611108 12.4852319,34.8611108 C12.4852319,34.8611108 11.3635886,32.7719432 11.5358308,25.0187568 Z" id="Path" fill="url(#linearGradient-3)" style="mix-blend-mode: screen;"></path>
            <path d="M14.1017146,28.0752168 C14.1181135,27.9218114 14.1167638,27.7725681 14.1246184,27.6275703 C14.1314539,27.5019282 14.234848,27.4032819 14.3606724,27.4023557 L17.2164568,27.7076859 C17.3422909,27.7064484 17.4473696,27.8033253 17.45634,27.9288454 C17.46668,28.0736768 17.4634097,28.2235681 17.4868962,28.3760341 C18.7544589,36.6043611 16.8024524,42.3350816 16.1518946,43.7561151 C16.1134669,43.8400709 16.029932,43.8942098 15.9376029,43.8950058 C15.8452739,43.8957844 15.7608279,43.843078 15.7209741,43.7597897 C15.0463173,42.3500476 13.1418665,37.0527568 14.1017146,28.0752168 Z" id="Path" fill="url(#linearGradient-4)" opacity="0.2"></path>
            <path d="M14.4405027,27.9203784 C14.420019,27.6599711 14.6051249,27.428352 14.86364,27.3909157 L16.78622,27.3745346 C17.0435847,27.4065189 17.2322626,27.6322829 17.2180443,27.8912373 C17.5320378,33.9087605 16.8114427,37.6361254 16.3286795,39.3825092 C16.3086297,39.5880057 16.1367637,39.7452597 15.9302989,39.7470345 C15.7238341,39.7487794 15.5493124,39.5944778 15.5257627,39.389353 C15.0133054,37.6514481 14.2292849,33.9369027 14.4405027,27.9203784 Z" id="Path" fill="url(#linearGradient-5)"></path>
            <path d="M14.9610346,26.2630173 C14.9645486,26.0924519 14.9684016,25.9312335 14.9723973,25.774207 L16.6722719,25.7597227 C16.6789373,25.9166957 16.6855432,26.0777892 16.6919886,26.2482595 C16.9996438,34.3887054 15.9146692,36.6026486 15.9146692,36.6026486 C15.9146692,36.6026486 14.7921281,34.4075184 14.9610346,26.2630173 Z" id="Path" fill="url(#linearGradient-6)" style="mix-blend-mode: screen;"></path>
            <path d="M10.8140286,15.9997378 C10.8140286,15.9997378 10.0229146,23.4603957 10.6528935,26.2439486 C11.2385882,26.6004164 11.8761727,26.8635993 12.5427768,27.0240568 C13.0039325,26.9821894 13.4579964,26.882519 13.8942903,26.7273897 C15.0589049,24.2295335 13.5097243,18.3547486 13.5097243,18.3547486 L10.8140286,15.9997378 Z" id="Path" fill="#FFFFFF"></path>
            <path d="M14.2306584,26.4530259 L14.2311578,27.6788659 C14.2311578,27.6788659 14.2537049,28.1861443 13.3406038,28.3890557 C12.3997232,28.5981389 11.0127659,28.310147 10.7253032,27.9155978 C10.664764,27.4413059 10.6460911,26.9626055 10.6695005,26.4850389 L12.4609011,26.9210789 L13.8366086,26.7488546 L14.2306584,26.4530259 Z" id="Path" fill="#333333"></path>
            <path d="M12.6072843,27.1322373 C11.872175,27.1762449 11.148151,26.9368683 10.5841465,26.4633481 L10.5646141,25.7876686 C10.6953357,26.4812989 11.65098,26.829773 12.6046384,26.8216686 C13.5320216,26.8137665 14.453233,26.4683308 14.6083865,25.7783692 L14.6007222,26.4272681 C14.0526896,26.9116777 13.3380076,27.1644214 12.6072843,27.1322373 Z" id="Path" fill="#666666"></path>
            <polygon id="Path" fill="#000000" opacity="0.2" points="12.8212432 19.6037838 15.224 28.0791351 12.8943784 28.5185405 12.366973 19.3255135"></polygon>
            <path d="M12.5134632,18.0068276 C12.5134632,18.0068276 13.3631746,24.6287562 13.9345443,28.0422762 C14.3868762,28.4222222 14.9309005,28.9056276 16.4653827,28.7161897 C16.9182737,28.4941113 17.3553884,28.2412107 17.7736454,27.9592708 C18.5933357,25.3173503 19.0181914,18.3584649 19.0181914,18.3584649 L12.5134632,18.0068276 Z" id="Path" fill="#FFFFFF"></path>
            <path d="M16.9492816,18.3003492 L16.384613,28.6319297 L17.8022157,27.9983238 C18.5933297,25.3026697 19.040233,18.4133578 19.040233,18.4133578 L16.9492816,18.3003492 Z" id="Path" fill="#000000" opacity="0.2"></path>
            <path d="M17.7782535,28.2204465 L17.7787886,29.5506914 C17.7787886,29.5506914 17.8032562,30.101173 16.8123881,30.3213692 C15.7913741,30.5482605 14.2862827,30.2357476 13.9743405,29.80758 C13.9086471,29.2928932 13.8883844,28.7734228 13.913787,28.2551827 L15.8577605,28.7283611 L17.3506389,28.5414741 L17.7782535,28.2204465 Z" id="Path" fill="#333333"></path>
            <path d="M15.8639146,28.9090465 C15.1301733,28.9529741 14.407496,28.7140443 13.8445405,28.2414059 L13.8250438,27.566987 C13.9555216,28.259327 14.9093822,28.607147 15.8612508,28.5990368 C16.7869038,28.5911465 17.6602086,28.2089173 17.8356735,27.5697103 L17.8037914,28.2058789 C17.2761956,28.6885677 16.5782596,28.9415559 15.8639146,28.9090465 Z" id="Path" fill="#666666"></path>
            <path d="M10.6748519,16.9813124 L10.8506557,17.2889676 C10.8506557,17.2889676 12.1106016,18.2632108 12.2131276,18.2778616 C12.3156535,18.2925124 14.1542946,19.1202535 14.2128919,19.0909519 C14.2714892,19.0616503 18.7544827,19.2228032 18.7544827,19.2228032 L18.6812286,17.8749762 L13.9491892,17.6259243 L11.2388843,17.0106081 L10.6821773,16.5124984 L10.6748519,16.9813124 Z" id="Path" fill="#000000" opacity="0.2"></path>
            <path d="M22.1609508,7.31014811 C22.2998481,16.0870065 20.4758697,16.7835324 16.0588286,18.4536654 C11.7038751,20.1003119 13.8947065,5.16872757 13.8947065,5.16872757 L22.1609508,7.31014811 Z" id="Path" fill="#333333"></path>
            <g id="Group" opacity="0.5" transform="translate(7.729730, 27.945946)">
                <g opacity="0.49711" transform="translate(1.783784, 7.729730)">
                    <path d="M0.706901622,0.276968108 C0.667635047,0.25938089 0.622752519,0.259268527 0.583398378,0.276658919 L0.519776757,0.27651027 L0.519776757,0.362012973 L0.519824324,0.362012973 C0.52903317,0.423003932 0.584517628,0.466012238 0.645878378,0.459722703 C0.707273571,0.466663028 0.762952796,0.423247763 0.771189189,0.362012973 L0.771189189,0.277122703 L0.706901622,0.276968108 Z" id="Path" fill="#E99E05"></path>
                    <circle id="Oval" fill="#FFDC42" transform="translate(0.645493, 0.276818) rotate(-89.286850) translate(-0.645493, -0.276818) " cx="0.645493154" cy="0.276818093" r="1"></circle>
                </g>
                <g opacity="0.48059" transform="translate(1.189189, 4.756757)">
                    <path d="M0.589278919,0.656432432 C0.531591596,0.630594846 0.465653686,0.630430622 0.407838378,0.655980541 L0.314391892,0.655766486 L0.314391892,0.781374595 L0.314463243,0.781374595 C0.327986994,0.870972046 0.409491338,0.934156102 0.499631892,0.924921622 C0.58982395,0.935099716 0.671612659,0.871326607 0.68373027,0.781374595 L0.68373027,0.656664324 L0.589278919,0.656432432 Z" id="Path" fill="#E99E05"></path>
                    <circle id="Oval" fill="#FFDC42" transform="translate(0.499054, 0.656237) rotate(-89.286850) translate(-0.499054, -0.656237) " cx="0.499054053" cy="0.656236767" r="1"></circle>
                </g>
                <g opacity="0.49018" transform="translate(1.189189, 7.729730)">
                    <path d="M0.426728649,0.654458378 C0.390933501,0.638422329 0.350016477,0.638320766 0.314142162,0.654178919 L0.256157297,0.654054054 L0.256157297,0.731999459 L0.256198919,0.731999459 C0.264592157,0.78759713 0.31516974,0.826802935 0.371104324,0.82106973 C0.4270684,0.82738538 0.477818398,0.78781454 0.485337838,0.731999459 L0.485337838,0.654612973 L0.426728649,0.654458378 Z" id="Path" fill="#E99E05"></path>
                    <circle id="Oval" fill="#FFDC42" transform="translate(0.370745, 0.654320) rotate(-89.286850) translate(-0.370745, -0.654320) " cx="0.370744771" cy="0.654319602" r="1"></circle>
                </g>
                <g opacity="0.51101" transform="translate(2.378378, 8.324324)">
                    <path d="M0.760040541,0.783384324 C0.727219404,0.768686125 0.689704841,0.76859537 0.656812973,0.783134595 L0.60365027,0.78300973 L0.60365027,0.854474054 L0.603685946,0.854474054 C0.611382955,0.905450469 0.657756518,0.941397243 0.709042162,0.936141622 C0.760354072,0.941930185 0.806884391,0.905648951 0.81378,0.854474054 L0.81378,0.783515135 L0.760040541,0.783384324 Z" id="Path" fill="#E99E05"></path>
                    <circle id="Oval" fill="#FFDC42" transform="translate(0.708714, 0.783260) rotate(-89.286850) translate(-0.708714, -0.783260) " cx="0.708714311" cy="0.78326017" r="1"></circle>
                </g>
                <g opacity="0.5174" transform="translate(1.783784, 9.513514)">
                    <path d="M0.452361622,0.34537027 C0.42449486,0.332894782 0.392645746,0.332816996 0.364718378,0.345156216 L0.319582703,0.345049189 L0.319582703,0.405697838 L0.319612432,0.405697838 C0.326147174,0.448976443 0.365515661,0.479496638 0.409057297,0.475039459 C0.452624829,0.479956197 0.492132887,0.449149633 0.497984865,0.405697838 L0.497984865,0.345459459 L0.452361622,0.34537027 Z" id="Path" fill="#E99E05"></path>
                    <circle id="Oval" fill="#FFDC42" transform="translate(0.408720, 0.345420) rotate(-89.286647) translate(-0.408720, -0.345420) " cx="0.408720115" cy="0.345420419" r="1"></circle>
                </g>
                <g opacity="0.50136" transform="translate(5.351351, 9.513514)">
                    <path d="M0.396493514,0.380689189 C0.364688754,0.366442797 0.328334412,0.366352041 0.296458919,0.380439459 L0.244937297,0.380320541 L0.244937297,0.449572973 L0.244972973,0.449572973 C0.252428027,0.4989724 0.297366525,0.533808243 0.347064865,0.528713514 C0.396790004,0.53432614 0.441882605,0.499166063 0.448562162,0.449572973 L0.448562162,0.380814054 L0.396493514,0.380689189 Z" id="Path" fill="#E99E05"></path>
                    <circle id="Oval" fill="#FFDC42" transform="translate(0.346751, 0.380567) rotate(-89.286850) translate(-0.346751, -0.380567) " cx="0.346750739" cy="0.380567115" r="1"></circle>
                </g>
                <g opacity="0.52179" transform="translate(4.756757, 10.108108)">
                    <path d="M0.692316216,0.70028973 C0.666361694,0.688666733 0.636696097,0.688593266 0.610684324,0.700087568 L0.568640541,0.699992432 L0.568640541,0.756508649 L0.568640541,0.756508649 C0.574727599,0.7968197 0.611399628,0.825244972 0.651955135,0.821087568 C0.692532814,0.825670413 0.729331683,0.796978919 0.734782162,0.756508649 L0.734782162,0.700396757 L0.692316216,0.70028973 Z" id="Path" fill="#E99E05"></path>
                    <circle id="Oval" fill="#FFDC42" transform="translate(0.651723, 0.700197) rotate(-89.286850) translate(-0.651723, -0.700197) " cx="0.651723264" cy="0.700197089" r="1"></circle>
                </g>
                <g opacity="0.48472" transform="translate(4.756757, 7.135135)">
                    <path d="M0.519592432,0.249355135 C0.47220746,0.228134298 0.418046672,0.228000327 0.370557297,0.248986486 L0.293801081,0.248808108 L0.293801081,0.352 L0.293860541,0.352 C0.304970712,0.425594037 0.371917293,0.477492031 0.445957838,0.469908108 C0.520040768,0.478272261 0.587222215,0.425887058 0.597169189,0.352 L0.597169189,0.249563243 L0.519592432,0.249355135 Z" id="Path" fill="#E99E05"></path>
                    <circle id="Oval" fill="#FFDC42" transform="translate(0.445488, 0.249173) rotate(-89.286850) translate(-0.445488, -0.249173) " cx="0.44548753" cy="0.249173081" r="1"></circle>
                </g>
                <g opacity="0.52653" transform="translate(3.567568, 9.513514)">
                    <path d="M0.492794054,0.743659459 C0.465848072,0.731588544 0.435047151,0.731510753 0.408040541,0.743445405 L0.364391351,0.743344324 L0.364391351,0.802024865 L0.364421081,0.802024865 C0.370741165,0.84387822 0.408815307,0.8733917 0.450922703,0.869077297 C0.493053032,0.873832463 0.531258488,0.844043144 0.536918919,0.802024865 L0.536918919,0.743754595 L0.492794054,0.743659459 Z" id="Path" fill="#E99E05"></path>
                    <circle id="Oval" fill="#FFDC42" transform="translate(0.450655, 0.743555) rotate(-89.286850) translate(-0.450655, -0.743555) " cx="0.450655106" cy="0.743554994" r="1"></circle>
                </g>
                <g opacity="0.55063" transform="translate(2.972973, 10.702703)">
                    <path d="M0.492252973,0.62526973 C0.471710319,0.616071511 0.448230762,0.616015329 0.427644324,0.625115135 L0.394347027,0.625037838 L0.394347027,0.669763243 L0.394347027,0.669763243 C0.399153164,0.701675085 0.428177669,0.724184847 0.460281622,0.720898378 C0.492400808,0.724504939 0.521518527,0.701793858 0.525841622,0.669763243 L0.525841622,0.625352973 L0.492252973,0.62526973 Z" id="Path" fill="#E99E05"></path>
                    <circle id="Oval" fill="#FFDC42" transform="translate(0.460122, 0.625194) rotate(-89.286850) translate(-0.460122, -0.625194) " cx="0.460122406" cy="0.625194422" r="1"></circle>
                </g>
                <g opacity="0.57527" transform="translate(2.972973, 11.891892)">
                    <path d="M0.834513514,0.425872432 C0.818224639,0.418579393 0.799607475,0.418534016 0.783283243,0.425747568 L0.756901081,0.425688108 L0.756901081,0.461155676 L0.756901081,0.461155676 C0.760721878,0.48645191 0.783733763,0.50428985 0.809183784,0.501683243 C0.834648653,0.504558142 0.857741682,0.486552871 0.861163243,0.461155676 L0.861163243,0.425937838 L0.834513514,0.425872432 Z" id="Path" fill="#E99E05"></path>
                    <circle id="Oval" fill="#FFDC42" transform="translate(0.809039, 0.425812) rotate(-89.286850) translate(-0.809039, -0.425812) " cx="0.809039302" cy="0.425811921" r="1"></circle>
                </g>
                <g opacity="0.56449" transform="translate(2.378378, 11.297297)">
                    <path d="M0.743742703,0.557527568 C0.724957597,0.549112499 0.703485047,0.549058478 0.684657838,0.557378919 L0.654226486,0.557307568 L0.654226486,0.598215676 L0.654226486,0.598215676 C0.658638652,0.627389239 0.685178176,0.647959857 0.71453027,0.644956757 C0.743898565,0.648271015 0.770530777,0.627505708 0.774477297,0.598215676 L0.774477297,0.557604865 L0.743742703,0.557527568 Z" id="Path" fill="#E99E05"></path>
                    <circle id="Oval" fill="#FFDC42" transform="translate(0.714363, 0.557455) rotate(-89.286850) translate(-0.714363, -0.557455) " cx="0.714363171" cy="0.557454787" r="1"></circle>
                </g>
                <g opacity="0.50487" transform="translate(4.162162, 8.324324)">
                    <path d="M0.411233514,0.726755135 C0.376041831,0.71098687 0.335812962,0.710887465 0.300543784,0.726481622 L0.243534054,0.726344865 L0.243534054,0.802982162 L0.243575676,0.802982162 C0.251827845,0.85764471 0.301554855,0.896190994 0.356548649,0.890554054 C0.411570798,0.896760961 0.461465827,0.857857155 0.468861622,0.802982162 L0.468861622,0.726874054 L0.411233514,0.726755135 Z" id="Path" fill="#E99E05"></path>
                    <circle id="Oval" fill="#FFDC42" transform="translate(0.356196, 0.726619) rotate(-89.286850) translate(-0.356196, -0.726619) " cx="0.356195578" cy="0.726619492" r="1"></circle>
                </g>
                <g opacity="0.59599" transform="translate(4.162162, 12.486486)">
                    <path d="M0.38038,0.660671892 C0.36523207,0.653893417 0.34792099,0.653852364 0.332741081,0.660558919 L0.308208108,0.660499459 L0.308208108,0.693475676 L0.308208108,0.693475676 C0.311767654,0.716996364 0.333162515,0.733582157 0.356828108,0.731167027 C0.380507423,0.73383785 0.401978929,0.717092294 0.405156757,0.693475676 L0.405156757,0.660737297 L0.38038,0.660671892 Z" id="Path" fill="#E99E05"></path>
                    <circle id="Oval" fill="#FFDC42" transform="translate(0.356693, 0.660616) rotate(-89.286850) translate(-0.356693, -0.660616) " cx="0.356693152" cy="0.660615903" r="1"></circle>
                </g>
                <g opacity="0.60477" transform="translate(3.567568, 12.486486)">
                    <path d="M0.453937297,0.809879459 C0.440216564,0.803732849 0.424532673,0.803693952 0.410781622,0.809772432 L0.388555676,0.809724865 L0.388555676,0.839567568 L0.388555676,0.839567568 C0.391769714,0.86087939 0.411157005,0.875908663 0.432597297,0.873709189 C0.454047981,0.876127352 0.473499066,0.860960577 0.476383243,0.839567568 L0.476383243,0.809903243 L0.453937297,0.809879459 Z" id="Path" fill="#E99E05"></path>
                    <circle id="Oval" fill="#FFDC42" transform="translate(0.432475, 0.809827) rotate(-89.286850) translate(-0.432475, -0.809827) " cx="0.432474529" cy="0.809826881" r="1"></circle>
                </g>
                <g opacity="0.49571" transform="translate(2.972973, 6.540541)">
                    <path d="M0.655356216,0.682315135 C0.60917253,0.661636826 0.556387407,0.661507181 0.510102703,0.681958378 L0.435296757,0.681785946 L0.435296757,0.782343784 L0.43535027,0.782343784 C0.446178414,0.854072639 0.511431275,0.90465329 0.583594595,0.897255135 C0.655795848,0.905405273 0.721271146,0.854353243 0.730970811,0.782343784 L0.730970811,0.682499459 L0.655356216,0.682315135 Z" id="Path" fill="#E99E05"></path>
                    <circle id="Oval" fill="#FFDC42" transform="translate(0.583132, 0.682140) rotate(-89.286850) translate(-0.583132, -0.682140) " cx="0.583131905" cy="0.682140346" r="1"></circle>
                </g>
                <g opacity="0.49298" transform="translate(2.378378, 5.945946)">
                    <path d="M0.606082162,0.681268649 C0.556483757,0.659055106 0.499792188,0.658914652 0.450084324,0.680882162 L0.369742703,0.680697838 L0.369742703,0.788694054 L0.369802162,0.788694054 C0.381430712,0.865728787 0.451509385,0.920051797 0.529010811,0.912108108 C0.606553619,0.920862467 0.676872741,0.866031568 0.687285946,0.788694054 L0.687285946,0.681464865 L0.606082162,0.681268649 Z" id="Path" fill="#E99E05"></path>
                    <circle id="Oval" fill="#FFDC42" transform="translate(0.528511, 0.681086) rotate(-89.286850) translate(-0.528511, -0.681086) " cx="0.528511119" cy="0.681085922" r="1"></circle>
                </g>
                <g opacity="0.52111" transform="translate(4.162162, 10.108108)">
                    <path d="M0.756823784,0.290661622 C0.729329236,0.278345243 0.697901128,0.27826745 0.670345946,0.290447568 L0.625810811,0.290340541 L0.625810811,0.350216216 L0.625840541,0.350216216 C0.632286547,0.392919813 0.671133912,0.423033523 0.714096216,0.41863027 C0.757083871,0.423487071 0.796068794,0.393090614 0.801840541,0.350216216 L0.801840541,0.290756757 L0.756823784,0.290661622 Z" id="Path" fill="#E99E05"></path>
                    <circle id="Oval" fill="#FFDC42" transform="translate(0.713827, 0.290555) rotate(-89.286850) translate(-0.713827, -0.290555) " cx="0.713826757" cy="0.290554557" r="1"></circle>
                </g>
                <g opacity="0.46531" transform="translate(5.945946, 7.135135)">
                    <path d="M0.570329189,0.677944865 C0.524988076,0.65763743 0.473162097,0.657509939 0.427721622,0.677594054 L0.354277297,0.677421622 L0.354277297,0.776124324 L0.354330811,0.776124324 C0.364959729,0.846546343 0.42902102,0.89620778 0.49986973,0.888948649 C0.570757799,0.896947709 0.63504067,0.846823711 0.644564324,0.776124324 L0.644564324,0.678105405 L0.570329189,0.677944865 Z" id="Path" fill="#E99E05"></path>
                    <circle id="Oval" fill="#FFDC42" transform="translate(0.499415, 0.677777) rotate(-89.286850) translate(-0.499415, -0.677777) " cx="0.499414911" cy="0.67777686" r="1"></circle>
                </g>
                <g opacity="0.50327" transform="translate(4.756757, 2.972973)">
                    <path d="M0.589154054,0.701936757 C0.514450146,0.668474087 0.429060416,0.668258004 0.354188108,0.701342162 L0.233176216,0.701062703 L0.233176216,0.863731892 L0.233271351,0.863731892 C0.250784776,0.979760122 0.356334162,1.0615819 0.473065405,1.04962 C0.589873769,1.06282356 0.695810337,0.980232665 0.711497838,0.863731892 L0.711497838,0.702216216 L0.589154054,0.701936757 Z" id="Path" fill="#E99E05"></path>
                    <circle id="Oval" fill="#FFDC42" transform="translate(0.472319, 0.701653) rotate(-89.286850) translate(-0.472319, -0.701653) " cx="0.472318604" cy="0.701653365" r="1"></circle>
                </g>
                <g opacity="0.51716" transform="translate(2.972973, 2.972973)">
                    <path d="M1.01335568,0.214612973 C0.932225634,0.178288785 0.839499847,0.178059747 0.758191351,0.213982703 L0.626785946,0.213679459 L0.626785946,0.390333514 L0.626887027,0.390333514 C0.645909192,0.516344404 0.760545963,0.605200988 0.887319459,0.592198378 C1.0141571,0.606519791 1.1291808,0.516835012 1.14621784,0.390333514 L1.14621784,0.214928108 L1.01335568,0.214612973 Z" id="Path" fill="#E99E05"></path>
                    <circle id="Oval" fill="#FFDC42" transform="translate(0.886480, 0.214306) rotate(-89.286850) translate(-0.886480, -0.214306) " cx="0.886479596" cy="0.214305903" r="1"></circle>
                </g>
                <g opacity="0.55436" transform="translate(4.162162, 0.594595)">
                    <path d="M0.518551892,0.68222 C0.421096669,0.638578746 0.309707448,0.638304324 0.212038378,0.681464865 L0.0541735135,0.681096216 L0.0541735135,0.893295135 L0.0542924324,0.893295135 C0.077138731,1.04465635 0.214830504,1.1513943 0.367108649,1.13578865 C0.519473631,1.15299185 0.657646466,1.0452564 0.678111351,0.893295135 L0.678111351,0.682594595 L0.518551892,0.68222 Z" id="Path" fill="#E99E05"></path>
                    <circle id="Oval" fill="#FFDC42" transform="translate(0.366138, 0.681852) rotate(-89.286850) translate(-0.366138, -0.681852) " cx="0.366137823" cy="0.681852332" r="1"></circle>
                </g>
                <g opacity="0.59542" transform="translate(4.756757, 1.783784)">
                    <path d="M0.928162162,0.633921081 C0.817231932,0.584244104 0.690440335,0.583930788 0.579265946,0.633058919 L0.399567568,0.632648649 L0.399567568,0.874190811 L0.399704324,0.874190811 C0.425700844,1.04648812 0.582438507,1.16799155 0.755777297,1.15021946 C0.929211888,1.16979856 1.08649041,1.04716528 1.10978703,0.874190811 L1.10978703,0.634372973 L0.928162162,0.633921081 Z" id="Path" fill="#E99E05"></path>
                    <circle id="Oval" fill="#FFDC42" transform="translate(0.754682, 0.633505) rotate(-89.286850) translate(-0.754682, -0.633505) " cx="0.754682221" cy="0.633505275" r="1"></circle>
                </g>
                <g opacity="0.55374" transform="translate(1.783784, 0.000000)">
                    <path d="M0.532364324,0.474403243 C0.428450799,0.427863272 0.309676065,0.427569398 0.205533514,0.473594595 L0.0372037838,0.473202162 L0.0372037838,0.699469189 L0.0373345946,0.699469189 C0.0616959135,0.860869813 0.208524767,0.974684421 0.370902162,0.958034595 C0.533364322,0.976376456 0.68069291,0.861500787 0.702513514,0.699469189 L0.702513514,0.474813514 L0.532364324,0.474403243 Z" id="Path" fill="#E99E05"></path>
                    <circle id="Oval" fill="#FFDC42" transform="translate(0.369846, 0.474008) rotate(-89.286850) translate(-0.369846, -0.474008) " cx="0.36984585" cy="0.474007837" r="1"></circle>
                </g>
                <g opacity="0.49059" transform="translate(4.162162, 5.945946)">
                    <path d="M0.399258378,0.320135676 C0.345032077,0.295849429 0.28305073,0.29569601 0.228704865,0.319713514 L0.140871351,0.319511351 L0.140871351,0.43758 L0.140918919,0.43758 C0.153632916,0.521799041 0.23024458,0.581189895 0.314974595,0.572511351 C0.39974674,0.582070712 0.476615632,0.522126184 0.488001622,0.43758 L0.488001622,0.32034973 L0.399258378,0.320135676 Z" id="Path" fill="#E99E05"></path>
                    <circle id="Oval" fill="#FFDC42" transform="translate(0.314454, 0.319932) rotate(-89.286850) translate(-0.314454, -0.319932) " cx="0.31445449" cy="0.319931986" r="1"></circle>
                </g>
                <g opacity="0.44291" transform="translate(7.135135, 4.756757)">
                    <path d="M0.537477838,0.226540541 C0.476342813,0.199162769 0.406465897,0.198992063 0.345197838,0.226070811 L0.246162162,0.225838919 L0.246162162,0.358956757 L0.246239459,0.358956757 C0.260572528,0.453899543 0.346936157,0.520854909 0.442455676,0.511077838 C0.538037577,0.521870639 0.624716763,0.4542856 0.637554054,0.358956757 L0.637554054,0.226784324 L0.537477838,0.226540541 Z" id="Path" fill="#E99E05"></path>
                    <circle id="Oval" fill="#FFDC42" transform="translate(0.441874, 0.226326) rotate(-89.286850) translate(-0.441874, -0.226326) " cx="0.441874176" cy="0.226325828" r="1"></circle>
                </g>
                <g opacity="0.45352" transform="translate(0.000000, 4.756757)">
                    <path d="M0.928614054,0.252988108 C0.869665074,0.226597427 0.802292115,0.226431053 0.743213514,0.25253027 L0.647733514,0.25231027 L0.647733514,0.380659459 L0.647804865,0.380659459 C0.661625924,0.472211288 0.744909828,0.536771886 0.837016757,0.527334054 C0.929173068,0.537733478 1.01274253,0.47257064 1.0251227,0.380659459 L1.0251227,0.253225946 L0.928614054,0.252988108 Z" id="Path" fill="#E99E05"></path>
                    <circle id="Oval" fill="#FFDC42" transform="translate(0.836428, 0.252765) rotate(-89.286850) translate(-0.836428, -0.252765) " cx="0.836428045" cy="0.252764697" r="1"></circle>
                </g>
                <g opacity="0.46148" transform="translate(5.945946, 5.351351)">
                    <path d="M0.827675676,0.20372 C0.766650723,0.176391672 0.696900199,0.176218809 0.635740541,0.203244324 L0.536889189,0.203012432 L0.536889189,0.335892432 L0.536960541,0.335892432 C0.551257964,0.430681414 0.637489292,0.497525417 0.73284973,0.48774 C0.82825715,0.498508349 0.914775716,0.43104648 0.927591351,0.335892432 L0.927591351,0.203945946 L0.827675676,0.20372 Z" id="Path" fill="#E99E05"></path>
                    <circle id="Oval" fill="#FFDC42" transform="translate(0.732239, 0.203488) rotate(-89.286850) translate(-0.732239, -0.203488) " cx="0.73223896" cy="0.203488241" r="1"></circle>
                </g>
                <g opacity="0.55033" transform="translate(2.378378, 0.594595)">
                    <path d="M0.995196757,0.691097297 C0.895000468,0.646228634 0.780478488,0.64594557 0.680061622,0.690318378 L0.517737297,0.689937838 L0.517737297,0.908124324 L0.517862162,0.908124324 C0.541358143,1.06375097 0.682931796,1.1734945 0.839502162,1.15744973 C0.996159116,1.17513779 1.13822387,1.06436649 1.15926324,0.908124324 L1.15926324,0.691513514 L0.995196757,0.691097297 Z" id="Path" fill="#E99E05"></path>
                    <circle id="Oval" fill="#FFDC42" transform="translate(0.838488, 0.690721) rotate(-89.286850) translate(-0.838488, -0.690721) " cx="0.838487847" cy="0.69072055" r="1"></circle>
                </g>
                <g opacity="0.4849" transform="translate(5.351351, 3.567568)">
                    <path d="M0.968273514,0.634985405 C0.899449618,0.604157912 0.820780878,0.603963433 0.751805405,0.63445027 L0.640318919,0.634188649 L0.640318919,0.784026486 L0.640378378,0.784026486 C0.656523266,0.890915378 0.753761669,0.9662879 0.8613,0.95526973 C0.968898618,0.967419364 1.06647609,0.891339681 1.08093135,0.784026486 L1.08093135,0.635235135 L0.968273514,0.634985405 Z" id="Path" fill="#E99E05"></path>
                    <circle id="Oval" fill="#FFDC42" transform="translate(0.860634, 0.634728) rotate(-89.286850) translate(-0.860634, -0.634728) " cx="0.860634173" cy="0.634727917" r="1"></circle>
                </g>
                <g opacity="0.47394" transform="translate(0.594595, 2.378378)">
                    <path d="M0.539564865,0.485022703 C0.461815054,0.450208888 0.372950086,0.449992808 0.295031892,0.484428108 L0.169090811,0.484130811 L0.169090811,0.653417838 L0.169191892,0.653417838 C0.187419713,0.774169478 0.297265512,0.859322153 0.418749189,0.846875135 C0.540302908,0.860602171 0.650534775,0.774650533 0.666855676,0.653417838 L0.666855676,0.485337838 L0.539564865,0.485022703 Z" id="Path" fill="#E99E05"></path>
                    <circle id="Oval" fill="#FFDC42" transform="translate(0.417974, 0.484724) rotate(-89.286850) translate(-0.417974, -0.484724) " cx="0.417974234" cy="0.484723538" r="1"></circle>
                </g>
                <g opacity="0.49851" transform="translate(2.972973, 4.162162)">
                    <path d="M0.666992432,0.752982703 C0.602291065,0.724005381 0.528336935,0.723821711 0.463492432,0.752477297 L0.358689189,0.752233514 L0.358689189,0.893116757 L0.358766486,0.893116757 C0.373939674,0.993605472 0.465353876,1.06446725 0.566452432,1.05410919 C0.667606786,1.06552771 0.759337763,0.994002642 0.772925405,0.893116757 L0.772925405,0.753238378 L0.666992432,0.752982703 Z" id="Path" fill="#E99E05"></path>
                    <circle id="Oval" fill="#FFDC42" transform="translate(0.565810, 0.752736) rotate(-89.286850) translate(-0.565810, -0.752736) " cx="0.565810148" cy="0.752736288" r="1"></circle>
                </g>
                <g opacity="0.51869" transform="translate(1.783784, 1.783784)">
                    <path d="M0.64572973,0.562522162 C0.557278364,0.522915381 0.456181756,0.52266689 0.367536757,0.561838378 L0.224239459,0.561505405 L0.224239459,0.754094595 L0.224352432,0.754094595 C0.245088771,0.8914668 0.370054685,0.988339724 0.508259459,0.974177838 C0.646543606,0.989792395 0.771947512,0.892012695 0.790519459,0.754094595 L0.790519459,0.562878919 L0.64572973,0.562522162 Z" id="Path" fill="#E99E05"></path>
                    <circle id="Oval" fill="#FFDC42" transform="translate(0.507385, 0.562188) rotate(-89.286850) translate(-0.507385, -0.562188) " cx="0.507384576" cy="0.562188201" r="1"></circle>
                </g>
            </g>
            <g id="Group" opacity="0.5" transform="translate(12.486486, 29.729730)">
                <g opacity="0.49711" transform="translate(1.783784, 7.729730)">
                    <path d="M0.518486486,0.292837838 C0.479218265,0.275256258 0.434337328,0.275146059 0.394983243,0.292534595 L0.331361622,0.292385946 L0.331361622,0.377888649 L0.331409189,0.377888649 C0.340618059,0.43887886 0.396103582,0.481885375 0.457463243,0.475592432 C0.51885641,0.482532963 0.574534739,0.439121039 0.582774054,0.377888649 L0.582774054,0.292998378 L0.518486486,0.292837838 Z" id="Path" fill="#E99E05"></path>
                    <circle id="Oval" fill="#FFDC42" transform="translate(0.457098, 0.292692) rotate(-89.286850) translate(-0.457098, -0.292692) " cx="0.457098209" cy="0.292691879" r="1"></circle>
                </g>
                <g opacity="0.48059" transform="translate(1.189189, 4.756757)">
                    <path d="M0.400881622,0.672331892 C0.343194298,0.646494305 0.277256389,0.646330082 0.219441081,0.67188 L0.125994595,0.67166 L0.125994595,0.797274054 L0.126054054,0.797274054 C0.139580694,0.88687164 0.221087902,0.95005327 0.311228649,0.940815135 C0.401418363,0.950996544 0.48320646,0.887224494 0.495321081,0.797274054 L0.495321081,0.672557838 L0.400881622,0.672331892 Z" id="Path" fill="#E99E05"></path>
                    <circle id="Oval" fill="#FFDC42" transform="translate(0.310665, 0.672111) rotate(-89.286850) translate(-0.310665, -0.672111) " cx="0.310665054" cy="0.672110626" r="1"></circle>
                </g>
                <g opacity="0.49018" transform="translate(0.594595, 7.729730)">
                    <path d="M0.832925946,0.670328108 C0.79712899,0.654298447 0.756213876,0.65419905 0.720339459,0.670054595 L0.662354595,0.669917838 L0.662354595,0.747863243 L0.662378378,0.747863243 C0.670768751,0.803460031 0.721344535,0.842666471 0.777277838,0.836933514 C0.833242842,0.843252454 0.883994876,0.803680026 0.891511351,0.747863243 L0.891511351,0.670470811 L0.832925946,0.670328108 Z" id="Path" fill="#E99E05"></path>
                    <circle id="Oval" fill="#FFDC42" transform="translate(0.776950, 0.670193) rotate(-89.286850) translate(-0.776950, -0.670193) " cx="0.776950293" cy="0.670193461" r="1"></circle>
                </g>
                <g opacity="0.51101" transform="translate(2.378378, 8.324324)">
                    <path d="M0.571649189,0.79926 C0.53882809,0.78456365 0.501315118,0.784470737 0.468421622,0.799004324 L0.415252973,0.798879459 L0.415252973,0.87034973 L0.415294595,0.87034973 C0.422991549,0.921323614 0.469361399,0.957269538 0.520644865,0.952017297 C0.571957703,0.95780915 0.618490058,0.921526329 0.625382703,0.87034973 L0.625382703,0.799390811 L0.571649189,0.79926 Z" id="Path" fill="#E99E05"></path>
                    <circle id="Oval" fill="#FFDC42" transform="translate(0.520313, 0.799140) rotate(-89.286850) translate(-0.520313, -0.799140) " cx="0.520313347" cy="0.799139901" r="1"></circle>
                </g>
                <g opacity="0.5174" transform="translate(1.189189, 9.513514)">
                    <path d="M0.858558919,0.361245946 C0.830693804,0.34876482 0.798843098,0.348684869 0.770915676,0.361025946 L0.72578,0.360924865 L0.72578,0.421573514 L0.725815676,0.421573514 C0.73234763,0.464853021 0.771719096,0.495372908 0.815260541,0.490909189 C0.858825728,0.495829242 0.898333175,0.465023736 0.904182162,0.421573514 L0.904182162,0.361335135 L0.858558919,0.361245946 Z" id="Path" fill="#E99E05"></path>
                    <circle id="Oval" fill="#FFDC42" transform="translate(0.814931, 0.361318) rotate(-89.286647) translate(-0.814931, -0.361318) " cx="0.814931137" cy="0.361318135" r="1"></circle>
                </g>
                <g opacity="0.50136" transform="translate(4.756757, 9.513514)">
                    <path d="M0.802702703,0.396558919 C0.770895974,0.382319662 0.73454386,0.382231072 0.702668108,0.396315135 L0.651152432,0.39619027 L0.651152432,0.465448649 L0.651188108,0.465448649 C0.658648783,0.514844777 0.703583453,0.549677652 0.75328,0.544589189 C0.803005139,0.550201816 0.84809774,0.515041739 0.854777297,0.465448649 L0.854777297,0.39668973 L0.802702703,0.396558919 Z" id="Path" fill="#E99E05"></path>
                    <circle id="Oval" fill="#FFDC42" transform="translate(0.752950, 0.396441) rotate(-89.286850) translate(-0.752950, -0.396441) " cx="0.752950389" cy="0.396440975" r="1"></circle>
                </g>
                <g opacity="0.52179" transform="translate(4.756757, 10.108108)">
                    <path d="M0.503918919,0.716165405 C0.477964397,0.704542408 0.448298799,0.704468941 0.422287027,0.715963243 L0.380243243,0.715891892 L0.380243243,0.772378378 L0.380278919,0.772378378 C0.386363112,0.812688548 0.423033342,0.841114454 0.463587568,0.836957297 C0.504165247,0.841540143 0.540964115,0.812848649 0.546414595,0.772378378 L0.546414595,0.716260541 L0.503918919,0.716165405 Z" id="Path" fill="#E99E05"></path>
                    <circle id="Oval" fill="#FFDC42" transform="translate(0.463334, 0.716065) rotate(-89.286850) translate(-0.463334, -0.716065) " cx="0.463334265" cy="0.716065003" r="1"></circle>
                </g>
                <g opacity="0.48472" transform="translate(4.162162, 7.135135)">
                    <path d="M0.925783784,0.265230811 C0.878400988,0.24400949 0.824241798,0.243875518 0.776754595,0.264862162 L0.699998378,0.264683784 L0.699998378,0.367857838 L0.700057838,0.367857838 C0.711165199,0.441453524 0.778113693,0.493353002 0.852155135,0.485765946 C0.926237137,0.494126808 0.993416548,0.441743194 1.00336649,0.367857838 L1.00336649,0.265421081 L0.925783784,0.265230811 Z" id="Path" fill="#E99E05"></path>
                    <circle id="Oval" fill="#FFDC42" transform="translate(0.851687, 0.265053) rotate(-89.286850) translate(-0.851687, -0.265053) " cx="0.851687105" cy="0.265052886" r="1"></circle>
                </g>
                <g opacity="0.52653" transform="translate(2.972973, 9.513514)">
                    <path d="M0.899027027,0.759529189 C0.872079398,0.747463913 0.841280069,0.747388286 0.814273514,0.759321081 L0.770618378,0.75922 L0.770618378,0.817894595 L0.770654054,0.817894595 C0.776968461,0.859748717 0.815042719,0.889264315 0.85714973,0.884947027 C0.899280987,0.889705483 0.93748848,0.859914576 0.943145946,0.817894595 L0.943145946,0.759624324 L0.899027027,0.759529189 Z" id="Path" fill="#E99E05"></path>
                    <circle id="Oval" fill="#FFDC42" transform="translate(0.856849, 0.759429) rotate(-89.286850) translate(-0.856849, -0.759429) " cx="0.856848736" cy="0.759428779" r="1"></circle>
                </g>
                <g opacity="0.55063" transform="translate(2.378378, 10.702703)">
                    <path d="M0.898432432,0.641145405 C0.877887639,0.631949516 0.854408073,0.631891179 0.833817838,0.640984865 L0.800520541,0.640907568 L0.800520541,0.685638919 L0.800520541,0.685638919 C0.805329544,0.717551643 0.834355848,0.74006077 0.866461081,0.736774054 C0.89858552,0.740403458 0.927715735,0.717680569 0.932015135,0.685638919 L0.932015135,0.641228649 L0.898432432,0.641145405 Z" id="Path" fill="#E99E05"></path>
                    <circle id="Oval" fill="#FFDC42" transform="translate(0.866328, 0.641074) rotate(-89.286850) translate(-0.866328, -0.641074) " cx="0.866327928" cy="0.641074228" r="1"></circle>
                </g>
                <g opacity="0.57527" transform="translate(2.972973, 11.891892)">
                    <path d="M0.646116216,0.441748108 C0.629829036,0.434456831 0.611214425,0.434411456 0.594891892,0.441623243 L0.568503784,0.441563784 L0.568503784,0.477025405 L0.568503784,0.477025405 C0.572321746,0.502324036 0.595334481,0.520165252 0.620786486,0.517558919 C0.646251205,0.52043014 0.66934134,0.502422424 0.67276,0.477025405 L0.67276,0.441813514 L0.646116216,0.441748108 Z" id="Path" fill="#E99E05"></path>
                    <circle id="Oval" fill="#FFDC42" transform="translate(0.620644, 0.441692) rotate(-89.286850) translate(-0.620644, -0.441692) " cx="0.620644283" cy="0.441691726" r="1"></circle>
                </g>
                <g opacity="0.56449" transform="translate(2.378378, 11.297297)">
                    <path d="M0.555351351,0.573403243 C0.536566246,0.564988175 0.515093696,0.564934153 0.496266486,0.573254595 L0.465835135,0.573183243 L0.465835135,0.614085405 L0.465835135,0.614085405 C0.470244411,0.643258835 0.496781073,0.663831879 0.526132973,0.660832432 C0.555504221,0.664149775 0.582139365,0.643379541 0.58608,0.614085405 L0.58608,0.573474595 L0.555351351,0.573403243 Z" id="Path" fill="#E99E05"></path>
                    <circle id="Oval" fill="#FFDC42" transform="translate(0.525974, 0.573329) rotate(-89.286850) translate(-0.525974, -0.573329) " cx="0.525974172" cy="0.573328647" r="1"></circle>
                </g>
                <g opacity="0.50487" transform="translate(3.567568, 8.324324)">
                    <path d="M0.817436757,0.742648649 C0.782241769,0.726886111 0.742013532,0.726786713 0.706741081,0.742375135 L0.649731351,0.742244324 L0.649731351,0.818875676 L0.649772973,0.818875676 C0.658025119,0.873538971 0.707751064,0.912087047 0.762745946,0.906453514 C0.817771977,0.912666795 0.867671974,0.873756473 0.875058919,0.818875676 L0.875058919,0.742767568 L0.817436757,0.742648649 Z" id="Path" fill="#E99E05"></path>
                    <circle id="Oval" fill="#FFDC42" transform="translate(0.762395, 0.742493) rotate(-89.286850) translate(-0.762395, -0.742493) " cx="0.762395227" cy="0.742493352" r="1"></circle>
                </g>
                <g opacity="0.59599" transform="translate(3.567568, 12.486486)">
                    <path d="M0.786577297,0.676547568 C0.771433191,0.669762972 0.754122118,0.669719753 0.738944324,0.676428649 L0.714411351,0.676375135 L0.714411351,0.709351351 L0.714411351,0.709351351 C0.717973672,0.732867114 0.739363974,0.749448784 0.763025405,0.747036757 C0.786705799,0.749714549 0.808182237,0.732969849 0.81136,0.709351351 L0.81136,0.676607027 L0.786577297,0.676547568 Z" id="Path" fill="#E99E05"></path>
                    <circle id="Oval" fill="#FFDC42" transform="translate(0.762893, 0.676490) rotate(-89.286850) translate(-0.762893, -0.676490) " cx="0.762892801" cy="0.676489763" r="1"></circle>
                </g>
                <g opacity="0.60477" transform="translate(2.972973, 12.486486)">
                    <path d="M0.860134595,0.825755135 C0.846413862,0.819608524 0.83072997,0.819569628 0.816978919,0.825648108 L0.794752973,0.825594595 L0.794752973,0.855472973 L0.794752973,0.855472973 C0.797969823,0.876783146 0.817355199,0.891810934 0.838794595,0.889614595 C0.860246206,0.892036047 0.879699327,0.876867684 0.882580541,0.855472973 L0.882580541,0.825808649 L0.860134595,0.825755135 Z" id="Path" fill="#E99E05"></path>
                    <circle id="Oval" fill="#FFDC42" transform="translate(0.838674, 0.825707) rotate(-89.286850) translate(-0.838674, -0.825707) " cx="0.838674104" cy="0.825706687" r="1"></circle>
                </g>
                <g opacity="0.49571" transform="translate(2.972973, 6.540541)">
                    <path d="M0.466964865,0.698190811 C0.420781179,0.677512502 0.367996055,0.677382857 0.321711351,0.697834054 L0.246899459,0.697655676 L0.246899459,0.798219459 L0.246958919,0.798219459 C0.257784197,0.869947433 0.323035259,0.920528718 0.395197297,0.913130811 C0.467399798,0.92128113 0.532876849,0.870229793 0.542579459,0.798219459 L0.542579459,0.698375135 L0.466964865,0.698190811 Z" id="Path" fill="#E99E05"></path>
                    <circle id="Oval" fill="#FFDC42" transform="translate(0.394737, 0.698014) rotate(-89.286850) translate(-0.394737, -0.698014) " cx="0.39473696" cy="0.698014206" r="1"></circle>
                </g>
                <g opacity="0.49298" transform="translate(2.378378, 5.945946)">
                    <path d="M0.417684865,0.697144324 C0.368088637,0.674930299 0.311398666,0.674789843 0.261692973,0.696757838 L0.181351351,0.696567568 L0.181351351,0.80456973 L0.181416757,0.80456973 C0.193045252,0.881601931 0.263120212,0.935924092 0.340619459,0.927983784 C0.418163515,0.936738324 0.48848439,0.881908118 0.498900541,0.80456973 L0.498900541,0.697340541 L0.417684865,0.697144324 Z" id="Path" fill="#E99E05"></path>
                    <circle id="Oval" fill="#FFDC42" transform="translate(0.340116, 0.696954) rotate(-89.286850) translate(-0.340116, -0.696954) " cx="0.340116174" cy="0.696953836" r="1"></circle>
                </g>
                <g opacity="0.52111" transform="translate(4.162162, 10.108108)">
                    <path d="M0.568432432,0.306531351 C0.540935794,0.294224703 0.50951182,0.294146921 0.481954595,0.306317297 L0.437413514,0.306216216 L0.437413514,0.366085946 L0.437449189,0.366085946 C0.443895195,0.408789543 0.482742561,0.438903252 0.525704865,0.4345 C0.568690664,0.43935022 0.607671513,0.408956939 0.613449189,0.366085946 L0.613449189,0.306626486 L0.568432432,0.306531351 Z" id="Path" fill="#E99E05"></path>
                    <circle id="Oval" fill="#FFDC42" transform="translate(0.525432, 0.306428) rotate(-89.286850) translate(-0.525432, -0.306428) " cx="0.525431812" cy="0.306428417" r="1"></circle>
                </g>
                <g opacity="0.46531" transform="translate(5.945946, 7.135135)">
                    <path d="M0.381931892,0.693820541 C0.336590779,0.673513105 0.2847648,0.673385615 0.239324324,0.69346973 L0.165891892,0.693297297 L0.165891892,0.792 L0.165951351,0.792 C0.176580293,0.862421272 0.240642649,0.912080917 0.31149027,0.904818378 C0.382377242,0.912820935 0.446661255,0.862698689 0.456184865,0.792 L0.456184865,0.693975135 L0.381931892,0.693820541 Z" id="Path" fill="#E99E05"></path>
                    <circle id="Oval" fill="#FFDC42" transform="translate(0.311026, 0.693645) rotate(-89.286850) translate(-0.311026, -0.693645) " cx="0.311025912" cy="0.693644774" r="1"></circle>
                </g>
                <g opacity="0.50327" transform="translate(4.162162, 2.972973)">
                    <path d="M0.995351351,0.717812432 C0.920647444,0.684349763 0.835257714,0.684133679 0.760385405,0.717217838 L0.639367568,0.716938378 L0.639367568,0.879601622 L0.639462703,0.879601622 C0.656976182,0.995632383 0.762529282,1.07745501 0.879262703,1.06548973 C0.99606019,1.07867593 1.10197781,0.99608951 1.11766541,0.879601622 L1.11766541,0.718097838 L0.995351351,0.717812432 Z" id="Path" fill="#E99E05"></path>
                    <circle id="Oval" fill="#FFDC42" transform="translate(0.878518, 0.717527) rotate(-89.286850) translate(-0.878518, -0.717527) " cx="0.87851818" cy="0.717527225" r="1"></circle>
                </g>
                <g opacity="0.51716" transform="translate(2.972973, 2.972973)">
                    <path d="M0.824964324,0.230488649 C0.743836697,0.194153232 0.651106137,0.193924182 0.5698,0.229858378 L0.438394595,0.229555135 L0.438394595,0.406203243 L0.43848973,0.406203243 C0.457511872,0.532214881 0.572147577,0.621073256 0.698922162,0.608074054 C0.825763074,0.622395442 0.940789423,0.532708016 0.957826486,0.406203243 L0.957826486,0.230797838 L0.824964324,0.230488649 Z" id="Path" fill="#E99E05"></path>
                    <circle id="Oval" fill="#FFDC42" transform="translate(0.698091, 0.230186) rotate(-89.286850) translate(-0.698091, -0.230186) " cx="0.698090523" cy="0.230185708" r="1"></circle>
                </g>
                <g opacity="0.55436" transform="translate(3.567568, 0.594595)">
                    <path d="M0.924749189,0.698095676 C0.827296382,0.654443188 0.715902386,0.654168755 0.618235676,0.697340541 L0.460370811,0.696971892 L0.460370811,0.909170811 L0.46048973,0.909170811 C0.483341705,1.06053125 0.621033363,1.16726709 0.773311892,1.15166432 C0.925665997,1.16885017 1.06381988,1.06111919 1.08428486,0.909170811 L1.08428486,0.698482162 L0.924749189,0.698095676 Z" id="Path" fill="#E99E05"></path>
                    <circle id="Oval" fill="#FFDC42" transform="translate(0.772337, 0.697726) rotate(-89.286850) translate(-0.772337, -0.697726) " cx="0.772337399" cy="0.697726191" r="1"></circle>
                </g>
                <g opacity="0.59542" transform="translate(5.351351, 1.189189)">
                    <path d="M0.872686486,0.743677297 C0.76175585,0.693992567 0.634959154,0.693679243 0.523784324,0.742815135 L0.344091892,0.742392973 L0.344091892,0.983941081 L0.344228649,0.983941081 C0.370228058,1.15623853 0.526968585,1.27773953 0.700307568,1.25996378 C0.873739815,1.2795462 1.03101772,1.15691398 1.05431135,0.983941081 L1.05431135,0.744117297 L0.872686486,0.743677297 Z" id="Path" fill="#E99E05"></path>
                    <circle id="Oval" fill="#FFDC42" transform="translate(0.699199, 0.743256) rotate(-89.286850) translate(-0.699199, -0.743256) " cx="0.699199393" cy="0.743255712" r="1"></circle>
                </g>
                <g opacity="0.55374" transform="translate(1.189189, 0.000000)">
                    <path d="M0.938567568,0.490272973 C0.834652395,0.443738641 0.715879253,0.443446932 0.611736757,0.48947027 L0.443407027,0.489071892 L0.443407027,0.715344865 L0.443531892,0.715344865 C0.467901644,0.87674054 0.614724753,0.990550696 0.777099459,0.97391027 C0.939562867,0.992252313 1.08689321,0.877377337 1.10871676,0.715344865 L1.10871676,0.490689189 L0.938567568,0.490272973 Z" id="Path" fill="#E99E05"></path>
                    <circle id="Oval" fill="#FFDC42" transform="translate(0.776051, 0.489882) rotate(-89.286850) translate(-0.776051, -0.489882) " cx="0.776051446" cy="0.489881697" r="1"></circle>
                </g>
                <g opacity="0.49059" transform="translate(3.567568, 5.945946)">
                    <path d="M0.805455676,0.336011351 C0.751231552,0.311724622 0.689251802,0.311571201 0.634908108,0.335589189 L0.547068649,0.335381081 L0.547068649,0.453455676 L0.547134054,0.453455676 C0.55984813,0.5376765 0.636464571,0.597066413 0.721195676,0.588381081 C0.805966724,0.597943938 0.882836757,0.538001162 0.894222703,0.453455676 L0.894222703,0.336225405 L0.805455676,0.336011351 Z" id="Path" fill="#E99E05"></path>
                    <circle id="Oval" fill="#FFDC42" transform="translate(0.720648, 0.335806) rotate(-89.286850) translate(-0.720648, -0.335806) " cx="0.720648194" cy="0.335805772" r="1"></circle>
                </g>
                <g opacity="0.44291" transform="translate(6.540541, 4.756757)">
                    <path d="M0.943681081,0.242428108 C0.882543916,0.215052668 0.812666993,0.214879807 0.751395135,0.241952432 L0.652365405,0.241720541 L0.652365405,0.374844324 L0.652442703,0.374844324 C0.666775772,0.469787111 0.7531394,0.536742477 0.848658919,0.526965405 C0.944239892,0.537754916 1.03091704,0.470171465 1.0437573,0.374844324 L1.0437573,0.242671892 L0.943681081,0.242428108 Z" id="Path" fill="#E99E05"></path>
                    <circle id="Oval" fill="#FFDC42" transform="translate(0.848068, 0.242194) rotate(-89.286850) translate(-0.848068, -0.242194) " cx="0.848067881" cy="0.242193668" r="1"></circle>
                </g>
                <g opacity="0.45352" transform="translate(0.000000, 4.756757)">
                    <path d="M0.740216757,0.268863784 C0.681271563,0.242465135 0.613897021,0.242298751 0.554822162,0.268405946 L0.459336216,0.268185946 L0.459336216,0.396535135 L0.459413514,0.396535135 C0.47323173,0.488085334 0.556514901,0.552644775 0.648619459,0.543203784 C0.740775602,0.553609994 0.824348244,0.48844732 0.836725405,0.396535135 L0.836725405,0.269101622 L0.740216757,0.268863784 Z" id="Path" fill="#E99E05"></path>
                    <circle id="Oval" fill="#FFDC42" transform="translate(0.648033, 0.268645) rotate(-89.286850) translate(-0.648033, -0.268645) " cx="0.648033026" cy="0.268644502" r="1"></circle>
                </g>
                <g opacity="0.46148" transform="translate(5.945946, 5.351351)">
                    <path d="M0.639284324,0.219595676 C0.578257194,0.192267831 0.508505072,0.192094969 0.447343243,0.21912 L0.348491892,0.218888108 L0.348491892,0.351768108 L0.348569189,0.351768108 C0.362866559,0.446554558 0.449094173,0.513397711 0.544452432,0.503615676 C0.6398611,0.514384206 0.726381419,0.44692303 0.7392,0.351768108 L0.7392,0.219839459 L0.639284324,0.219595676 Z" id="Path" fill="#E99E05"></path>
                    <circle id="Oval" fill="#FFDC42" transform="translate(0.543844, 0.219362) rotate(-89.286850) translate(-0.543844, -0.219362) " cx="0.543844015" cy="0.219362101" r="1"></circle>
                </g>
                <g opacity="0.55033" transform="translate(2.378378, 0.594595)">
                    <path d="M0.806799459,0.706972973 C0.706603171,0.66210431 0.592081191,0.661821246 0.491664324,0.706194054 L0.32934,0.705813514 L0.32934,0.92402973 L0.329464865,0.92402973 C0.35295798,1.07965549 0.494529834,1.18939966 0.651098919,1.17335514 C0.807756192,1.19104009 0.949820664,1.08027107 0.970865946,0.92402973 L0.970865946,0.707401081 L0.806799459,0.706972973 Z" id="Path" fill="#E99E05"></path>
                    <circle id="Oval" fill="#FFDC42" transform="translate(0.650093, 0.706588) rotate(-89.286850) translate(-0.650093, -0.706588) " cx="0.650092902" cy="0.706588464" r="1"></circle>
                </g>
                <g opacity="0.4849" transform="translate(5.351351, 3.567568)">
                    <path d="M0.779876216,0.650861081 C0.71105232,0.620033587 0.63238358,0.619839109 0.563408108,0.650325946 L0.451921622,0.650064324 L0.451921622,0.799902162 L0.452010811,0.799902162 C0.468150022,0.906791821 0.565388541,0.982166461 0.672926486,0.971145405 C0.780526352,0.983295221 0.878105581,0.907216231 0.892563784,0.799902162 L0.892563784,0.651110811 L0.779876216,0.650861081 Z" id="Path" fill="#E99E05"></path>
                    <circle id="Oval" fill="#FFDC42" transform="translate(0.672245, 0.650596) rotate(-89.286850) translate(-0.672245, -0.650596) " cx="0.672245174" cy="0.650595831" r="1"></circle>
                </g>
                <g opacity="0.47394" transform="translate(0.000000, 2.378378)">
                    <path d="M0.945762162,0.500898378 C0.868015333,0.466080336 0.779150371,0.465864251 0.701235135,0.500303784 L0.575294054,0.500012432 L0.575294054,0.669299459 L0.575389189,0.669299459 C0.593619875,0.790051982 0.703467474,0.875204023 0.824952432,0.862756757 C0.946503367,0.876473921 1.05672912,0.790527047 1.07305892,0.669299459 L1.07305892,0.501219459 L0.945762162,0.500898378 Z" id="Path" fill="#E99E05"></path>
                    <circle id="Oval" fill="#FFDC42" transform="translate(0.824174, 0.500603) rotate(-89.286850) translate(-0.824174, -0.500603) " cx="0.82417381" cy="0.500603269" r="1"></circle>
                </g>
                <g opacity="0.49851" transform="translate(2.972973, 4.756757)">
                    <path d="M0.478595135,0.174263784 C0.413895462,0.145288225 0.339943885,0.145104556 0.275101081,0.173758378 L0.170291892,0.173514595 L0.170291892,0.314397838 L0.170375135,0.314397838 C0.185545457,0.414885671 0.27695786,0.48574808 0.378055135,0.47539027 C0.479210736,0.486808971 0.570943466,0.415284597 0.584534054,0.314397838 L0.584534054,0.174519459 L0.478595135,0.174263784 Z" id="Path" fill="#E99E05"></path>
                    <circle id="Oval" fill="#FFDC42" transform="translate(0.377409, 0.174015) rotate(-89.286850) translate(-0.377409, -0.174015) " cx="0.377409258" cy="0.174015479" r="1"></circle>
                </g>
                <g opacity="0.51869" transform="translate(1.783784, 1.783784)">
                    <path d="M0.457314595,0.578397838 C0.368867016,0.538783085 0.267768823,0.538534586 0.179127568,0.577714054 L0.0358302703,0.577375135 L0.0358302703,0.77 L0.0359372973,0.77 C0.0566765015,0.907373088 0.181644215,1.00424538 0.31985027,0.990083243 C0.458133489,1.00569451 0.583535358,0.907916398 0.60211027,0.77 L0.60211027,0.578778378 L0.457314595,0.578397838 Z" id="Path" fill="#E99E05"></path>
                    <circle id="Oval" fill="#FFDC42" transform="translate(0.318990, 0.578068) rotate(-89.286850) translate(-0.318990, -0.578068) " cx="0.318989557" cy="0.578068007" r="1"></circle>
                </g>
            </g>
            <path d="M9.03995459,7.12671568 C8.48921867,8.58679779 8.16733877,10.1231943 8.08570162,11.6815541 C8.11500324,11.8866535 6.92100378,12.7803232 6.01268919,13.0147243 C5.10437459,13.2491254 6.45219568,15.3001735 6.45219568,15.3001735 L10.4500892,14.4488865 L10.4295519,9.55358919 L9.03995459,7.12671568 Z" id="Path" fill="#E6E6E6"></path>
            <path d="M17.3334016,12.41042 C17.5445719,16.5171065 17.9502162,16.7632389 17.9502162,16.7632389 C17.9502162,16.7632389 16.2461081,19.3474065 14.0663897,18.6807411 C13.1293562,18.3941465 10.7554254,17.1717611 10.6968222,16.6590005 C10.6746987,16.2720727 10.5906098,15.8912044 10.4477643,15.5309297 C10.065576,14.7429007 9.74934501,13.9245567 9.50228315,13.0842978 C9.50020857,11.9428293 9.59578355,10.8032739 9.78799622,9.67810324 L10.4295638,9.55361297 L17.3334016,12.41042 Z" id="Path" fill="#3B3B3B"></path>
            <polygon id="Path" fill="#2C454D" points="6.16416216 16.409027 1.5947027 14.363027 1.50313514 11.129027 5.70097297 13.0388649"></polygon>
            <path d="M4.94082541,12.574427 C3.52182143,13.1736624 2.05489049,13.6523781 0.555571351,14.0055032 L5.42134108,16.1013303 L4.94082541,12.574427 Z" id="Path" fill="#406570"></path>
            <path d="M1.50325405,11.1291341 C0.963868865,11.366614 0.50805831,11.7603344 0.194676216,12.2594584 C-0.147310811,12.9335622 -0.0725881081,16.5129146 0.691424324,16.8978908 C1.87387081,17.4937043 1.59485135,14.3631341 1.59485135,14.3631341 L1.50325405,11.1291341 Z" id="Path" fill="#406570"></path>
            <path d="M1.59485135,14.3630924 C-0.403842703,15.4221249 -0.0604048649,16.5736168 1.12204757,17.1694243 C2.3045,17.7652319 4.87267892,17.1600832 6.1640373,16.4091697 C7.45539568,15.6582562 5.52883189,16.0712735 5.52883189,16.0712735 L1.59485135,14.3630924 Z" id="Path" fill="#2C454D"></path>
            <polygon id="Path" fill="#406570" points="4.94108108 12.5744865 5.78540541 12.3003784 6.21827027 15.2037838 5.42151351 16.1016216"></polygon>
            <polygon id="Path" fill="#528391" points="5.52854054 16.0712973 6.25216216 16.458973 6.87291892 15.2864324 6.21827027 15.2037838"></polygon>
            <polygon id="Path" fill="#649FB0" points="5.79491892 12.2801622 6.40318919 12.7707027 6.83783784 15.3334054 6.19745946 15.0979459"></polygon>
            <polygon id="Path" fill="#85D3EA" points="1.60421622 12.735027 1.3312973 13.0138919 1.32178378 13.1631351 1.60183784 13.1435135"></polygon>
            <polygon id="Path" fill="#85D3EA" points="1.53524324 12.1243784 1.26291892 12.4032432 1.25281081 12.5530811 1.53286486 12.5334595"></polygon>
            <polygon id="Path" fill="#85D3EA" points="1.53345946 11.4792432 1.26054054 11.7581081 1.25102703 11.9073514 1.53108108 11.8883243"></polygon>
            <polygon id="Path" fill="#85D3EA" points="1.6167027 13.2392432 1.34378378 13.5181081 1.33427027 13.6679459 1.61432432 13.6483243"></polygon>
            <polygon id="Path" fill="#85D3EA" points="1.60362162 13.8023243 1.3312973 14.0811892 1.32118919 14.2304324 1.60124324 14.2114054"></polygon>
            <path d="M7.36048649,12.2993735 C5.39734919,12.7095843 4.97596,13.4295611 5.18105946,14.3378757 C5.38615892,15.2461903 7.92173622,15.5353297 8.07411892,15.0610811 C8.82158973,12.7348189 7.36048649,12.2993735 7.36048649,12.2993735 Z" id="Path" fill="#E6E6E6"></path>
            <polygon id="Path" fill="#EBF8FC" points="2.98843243 13.8035135 2.32545946 13.4205946 2.98427027 13.0406486 3.64724324 13.422973"></polygon>
            <polygon id="Path" fill="#E0F4FA" points="2.98843243 14.564 2.32545946 14.1816757 2.32545946 13.4205946 2.98843243 13.8035135"></polygon>
            <polygon id="Path" fill="#CEE8F0" points="2.98843243 14.564 3.65140541 14.1816757 3.65140541 13.4205946 2.98843243 13.8035135"></polygon>
            <polygon id="Path" fill="#000000" opacity="0.2" points="16.4399459 12.7035135 16.4108108 15.0182703 15.5462703 16.1313514 16.3519459 19.7649189 18.7547027 18.9735135 19.4194595 12.6607027"></polygon>
            <path d="M10.9820016,6.51364108 C10.5748232,6.51364108 8.55005027,6.80665135 8.55005027,6.80665135 C9.15399367,6.40371309 9.79696539,6.06259483 10.4692411,5.78845568 C10.9763308,5.61001014 11.4665942,5.38694012 11.9342686,5.12186757 L10.7622454,5.73717784 L10.9820016,6.51364108 Z" id="Path" fill="#3B3B3B"></path>
            <polygon id="Path" fill="#292929" points="9.77394595 4.65805405 9.77394595 6.73616216 10.4541622 7.02691892 10.5421622 4.90243243"></polygon>
            <path d="M12.1535135,4.27769189 L12.2267616,6.29804108 C12.0013806,6.06664774 11.6611139,5.98920445 11.3577914,6.10026703 C10.9756568,6.31835456 10.6625041,6.63944563 10.4540492,7.02691892 L10.5419541,4.90262865 L10.9637773,4.30928865 L11.7652432,4.1554373 L12.1535135,4.27769189 Z" id="Path" fill="#333333"></path>
            <path d="M10.6884324,3.93568703 C9.93012216,4.26615676 9.77405297,4.65780432 9.77405297,4.65780432 L10.5419303,4.90260486 C10.5419303,4.90260486 10.6416914,4.68718919 11.3577141,4.34589189 C11.6016763,4.21255667 11.8904217,4.18781119 12.1535135,4.27769189 C11.7669189,3.8998068 11.2023789,3.76802199 10.6884324,3.93568703 Z" id="Path" fill="#545454"></path>
            <path d="M19.2716908,10.4987568 C26.5009265,6.67745189 19.2023076,1.67956919 11.3577616,5.45566108" id="Path" fill="#171717"></path>
            <path d="M18.8699649,10.4987568 C25.7322227,6.87143243 18.8040957,2.12725135 11.3577616,5.71167568" id="Path" fill="#000000"></path>
            <path d="M12.0990724,4.9739027 C15.5321724,5.85292162 17.1403665,6.82875243 19.3685027,9.63057135 C21.5966389,12.4323903 14.1762708,8.36694486 14.1762708,8.36694486 L12.2022168,7.44472865 L10.2133514,8.55205405 L10.4295341,5.9292973 L12.0990724,4.9739027 Z" id="Path" fill="#191919"></path>
            <path d="M12.6306638,7.37072541 C13.4877896,7.33186847 14.3440631,7.46424954 15.1494378,7.76013135 C15.3327117,8.21605978 15.4449857,8.69739697 15.4823454,9.18736054 C15.4173859,9.54887405 14.6817,11.3556032 14.6817,11.3556032 C14.6817,11.3556032 11.1949378,10.2128757 11.1949378,10.0663735 C11.1949378,9.91987135 11.8102481,8.24973838 11.8102481,8.24973838 L12.6306638,7.37072541 Z" id="Path" fill="#383838"></path>
            <path d="M12.1911573,9.45108108 C12.1299214,8.84187736 12.3751764,8.24202659 12.8456811,7.85023027 C13.1032808,7.66569429 13.3131689,7.42239782 13.4579351,7.14052216 C13.4579351,7.14052216 13.336287,7.09123027 13.2790811,7.07422486 C12.8103238,6.91019762 12.2944639,6.94851717 11.8550865,7.18000324 C11.2601587,7.4308425 10.8862237,8.02761214 10.9199676,8.67237622 L10.6968281,9.53898595 C10.6968281,9.53898595 11.8466492,12.2018362 12.1911573,9.45108108 Z" id="Path" fill="#000000"></path>
            <path d="M16.9085459,11.3556032 L17.7829568,10.351333 C17.7829568,9.20120865 16.9148486,8.52301405 15.9413784,7.93299784 C15.8477297,7.87460865 15.7484324,7.81800324 15.6477081,7.75973297 L15.1031784,7.44477622 L15.1494378,7.76014919 C15.2307189,8.30783027 13.8764108,8.98620324 13.5389784,10.4473005 C13.0955297,12.3694286 16.9085459,11.3556032 16.9085459,11.3556032 Z" id="Path" fill="#000000"></path>
            <path d="M12.5427589,4.82854216 C12.4695108,5.8470827 12.4109076,6.64556378 12.4109076,6.64556378 L12.3816059,8.33398649 C12.7249734,8.1854201 13.0399846,7.97844906 13.3126459,7.72226757 C13.5198497,7.41156854 13.6890183,7.07712603 13.8165232,6.72611351 L12.5427589,4.82854216 Z" id="Path" fill="#0C0B17"></path>
            <path d="M14.8778092,6.09955351 L14.8428649,8.15962162 C14.8274556,8.26333644 14.7636691,8.35355351 14.671027,8.40266216 C14.3114871,8.58065384 13.8943145,8.6019057 13.5185481,8.46137243 C13.3075205,8.37953243 13.1940838,8.25837189 13.1962362,8.13168162 L13.2243011,6.47763838 L14.0199995,5.48125243 L14.1057816,5.48270919 L14.8778092,6.09955351 Z" id="Path" fill="#DBA2A7"></path>
            <path d="M11.9310519,4.75707784 C11.7944676,5.49228216 11.9697778,6.72630378 12.5207946,7.23185189 C12.8008008,7.53253913 13.2321955,7.63905182 13.6199741,7.5032427 C14.1023243,7.28900078 14.5244153,6.9591436 14.8488822,6.54287135 C15.0819913,6.2221005 15.2475615,5.8573489 15.3355638,5.47071027 C15.4822607,4.98969514 15.4209035,4.46923447 15.1663691,4.03552055 C14.9118347,3.60180663 14.4873667,3.29444542 13.9958827,3.18796054 C12.2368281,2.81218865 12.1151562,3.7655973 11.9310519,4.75707784 Z" id="Path" fill="#FCBAC0"></path>
            <path d="M15.9155135,4.02043459 C16.141513,4.75191676 16.0993384,8.97400216 14.8060832,8.64506649 L14.8777854,6.09955351 C14.9566524,5.94139135 15.1446157,5.82279351 15.1333005,5.62748703 C15.1278659,5.50982865 14.9381962,5.51499568 14.7954043,5.64185838 C14.7141292,5.72111784 14.47116,6.60284216 14.3517892,6.62484216 C14.1589384,6.66319946 14.1122568,5.66154541 14.1209735,5.46651838 C14.1624306,5.12501784 14.0278189,4.78580398 13.7634795,4.56565405 C13.7333038,4.54200703 13.576313,4.55351243 13.7620941,4.37393297 C13.7897427,4.34717622 13.6024751,4.46108865 13.5676616,4.44391676 C13.1019276,4.21415351 12.3989919,4.40421568 12.1091211,4.25364649 C12.0381421,4.41713119 11.9786222,4.58535565 11.9309924,4.75710162 C11.9181545,4.53581961 11.9193937,4.31394534 11.9347027,4.09282054 C11.9428769,3.47013274 12.3702456,2.93140423 12.9747438,2.78177514 C13.0763465,2.7558448 13.1794338,2.73612525 13.2834335,2.72272595 C14.8040735,2.52415514 15.6888659,3.29720541 15.9155135,4.02043459 Z" id="Path" fill="#17142B"></path>
            <path d="M14.4522162,5.67730216 C14.276353,6.01804649 14.3131524,6.3868973 14.5344546,6.5011427 C14.7557568,6.61538811 15.0777416,6.43174162 15.2536643,6.09100324 C15.429587,5.75026486 15.3927341,5.38140811 15.17142,5.2671627 C14.9501059,5.1529173 14.6281508,5.33656378 14.4522162,5.67730216 Z" id="Path" fill="#FCBAC0"></path>
            <path d="M20.8934238,11.6486076 C21.9482346,13.9340508 20.5711178,17.8603373 17.7829568,19.0963805 C15.784453,19.9823622 17.73552,18.02856 17.3492178,17.8055157 C16.9629157,17.5824714 17.5559346,14.0489265 18.0805692,12.7912995 C18.7790811,11.1169865 20.8934238,11.6486076 20.8934238,11.6486076 Z" id="Path" fill="#E6E6E6"></path>
            <path d="M19.4195427,12.6605481 L17.8956859,13.2558919 C16.3677675,12.947625 14.8737005,12.4905064 13.4348649,11.8910773 C13.5208016,14.6360649 13.3208751,15.1236919 12.0248432,14.4942124 C11.2606941,14.1230962 10.7067222,12.9063178 11.1716,10.7306189 C9.60286386,10.0511028 8.57729669,8.51604108 8.55003243,6.80667514 L9.78065892,6.63087135 L10.9819838,6.51366486 C10.9819838,6.51366486 10.1411081,8.48930649 12.4470114,9.26792216 C13.8040551,9.71874054 15.2795544,9.65432871 16.5921503,9.08696919 L17.1429351,9.91989514 L19.3844438,11.7218378 L19.4195427,12.6605481 Z" id="Path" fill="#292929"></path>
            <path d="M18.651927,9.14707081 C20.9526989,10.4753951 21.2639811,11.6193059 21.2639811,11.6193059 L19.4195486,12.6605481 C19.4195486,12.6605481 17.6819292,10.3393519 16.8792503,9.87592486 C17.1973584,8.89860757 17.1386184,8.89860757 17.4975573,8.69137946 C17.8564962,8.48415135 18.651927,9.14707081 18.651927,9.14707081 Z" id="Path" fill="#3B3B3B"></path>
            <path d="M17.5960212,3.41625514 C17.5960212,1.5294734 16.0664655,-6.54054054e-05 14.1796838,-6.54054054e-05 C12.292902,-6.54054054e-05 10.7633632,1.5294734 10.7633632,3.41625514 L10.7633632,7.8155773 L10.7633632,7.8155773 C10.7692438,8.90481514 12.3038092,9.79067189 14.1903686,9.79402375 C16.0769281,9.79748595 17.6018789,8.91716486 17.5960212,7.82786757 L17.5944049,7.8155773 L17.5960212,7.8155773 L17.5960212,3.41625514 Z" id="Path" fill="url(#radialGradient-7)" opacity="0.5"></path>
            <polygon id="Path" fill="#292929" points="16.1991351 7.50675676 16.1991351 9.58545946 16.8793514 9.87621622 16.9673514 7.75172973"></polygon>
            <path d="M18.5787027,7.12671568 L18.6519508,9.14707081 C18.4265719,8.915674 18.0863042,8.83822814 17.7829805,8.94929081 C17.4008608,9.1673797 17.0877195,9.48846348 16.8792681,9.87592486 L16.967173,7.75162865 L17.3889962,7.15829459 L18.1904681,7.00446703 L18.5787027,7.12671568 Z" id="Path" fill="#333333"></path>
            <path d="M17.1136514,6.78471081 C16.3553411,7.11518054 16.1992719,7.50683405 16.1992719,7.50683405 L16.9671492,7.75162865 C16.9671492,7.75162865 17.0669103,7.53621297 17.782933,7.19492162 C18.0268747,7.06161184 18.315585,7.03686481 18.5786551,7.12671568 C18.1920741,6.74886355 17.627575,6.61708134 17.1136514,6.78471081 Z" id="Path" fill="#545454"></path>
            <polygon id="Path" fill="#010101" points="12.9157838 17.2123243 11.5838919 16.4435135 11.5838919 14.8161081 12.9157838 15.5855135"></polygon>
            <polygon id="Path" fill="#85D3EA" points="12.6303784 16.6991892 11.8692973 16.2597838 11.8692973 15.3298378 12.6303784 15.7692432"></polygon>
            <path d="M12.9575778,13.6274481 C12.9575778,14.1370157 12.5975568,14.3422816 12.1534838,14.0858805 C11.6796649,13.7782006 11.3809771,13.2630097 11.3493897,12.6989411 C11.3493897,12.1893735 11.7094108,11.9841195 12.1534838,12.2405086 C12.6273062,12.5481851 12.9259952,13.063378 12.9575778,13.6274481 Z M12.6895405,13.4726989 C12.6684791,13.0966641 12.4693561,12.7532152 12.1534838,12.5481043 C11.8574292,12.3771762 11.617427,12.5140103 11.617427,12.8537259 C11.6384894,13.2297605 11.8376122,13.573209 12.1534838,13.7783205 C12.4495384,13.9492546 12.6895405,13.8124324 12.6895405,13.4726989 L12.6895405,13.4726989 Z" id="Shape" fill="#85D3EA"></path>
            <path d="M7.45643027,26.1286211 L16.3914032,15.4556481 C16.3960964,15.4476926 16.400095,15.4393473 16.4033546,15.4307049 C16.44016,15.3401303 17.2828016,13.9007178 19.0165205,15.1195595 C20.0928338,15.8027147 20.4471917,17.2081718 19.8234389,18.3199649 L7.45643027,26.1286211 Z" id="Path" fill="#2C454D"></path>
            <path d="M18.0348032,19.5223243 C18.119093,19.0278535 18.6630935,18.3028941 18.2591676,17.1701081 C17.8349778,15.9805027 16.1174378,15.8386027 16.1174378,15.8386027 L16.1174378,15.6041838 C16.1174378,15.6041838 18.4834249,15.2181135 18.7837903,17.3915351 C18.9747255,18.1872789 18.6816441,19.0210646 18.0348032,19.5223243 Z" id="Path" fill="#14B4AC" opacity="0"></path>
            <path d="M17.1169335,20.0943659 C17.195087,19.6358859 17.664353,18.9991227 17.2910546,17.948367 C16.9021897,16.8546103 15.3482881,16.7509724 15.3482881,16.7509724 L15.3556135,16.5190092 C15.3556135,16.5190092 17.5004886,16.1525605 17.7770346,18.1283746 C17.9601805,18.8563957 17.7023198,19.6243872 17.1169335,20.0943659 L17.1169335,20.0943659 Z" id="Path" fill="#14B4AC" opacity="0.11111"></path>
            <path d="M16.1990578,20.6664314 C16.4719366,20.0556877 16.5159105,19.3671386 16.3229416,18.7266438 C15.9693957,17.7287416 14.5791503,17.66336 14.5791503,17.66336 L14.5938011,17.4338465 C14.5938011,17.4338465 16.5175584,17.0870135 16.7702789,18.8652378 C16.9452148,19.5256052 16.7225959,20.2275744 16.1990578,20.6664314 Z" id="Path" fill="#14B4AC" opacity="0.22222"></path>
            <path d="M15.2811881,21.2384908 C15.5129899,20.6881984 15.5391277,20.0728886 15.3548286,19.5049205 C15.0366016,18.602867 13.8100124,18.5757476 13.8100124,18.5757476 L13.8320124,18.3486719 C13.8320124,18.3486719 15.5310427,18.0219838 15.763553,19.6020773 C15.9282958,20.1949049 15.7411463,20.829806 15.2811881,21.2384908 Z" id="Path" fill="#14B4AC" opacity="0.33333"></path>
            <path d="M14.3633184,21.8105562 C14.5534942,21.3206099 14.5617951,20.778733 14.3867157,20.2831914 C14.1038135,19.4769924 13.0408686,19.4881351 13.0408686,19.4881351 L13.0701703,19.2634973 C13.0701703,19.2634973 14.5472681,18.9565676 14.7567795,20.3389465 C14.9115193,20.86446 14.7596737,21.4323878 14.3633184,21.8105562 L14.3633184,21.8105562 Z" id="Path" fill="#14B4AC" opacity="0.44444"></path>
            <path d="M13.4454427,22.3826157 C13.5931693,21.9529406 13.5836584,21.4847888 13.4186027,21.0614681 C13.1710254,20.3511238 12.2717308,20.4005405 12.2717308,20.4005405 L12.3083578,20.1783465 C12.3083578,20.1783465 13.5638205,19.8911573 13.7500297,21.0758216 C13.9024362,22.0454092 13.4454427,22.3826157 13.4454427,22.3826157 Z" id="Path" fill="#14B4AC" opacity="0.55556"></path>
            <path d="M12.527573,22.9546811 C12.6315132,22.5852968 12.6042742,22.1913109 12.4504897,21.8397449 C12.2871745,21.472575 11.9006386,21.2577507 11.502593,21.3129341 L11.5465395,21.0931778 C11.5465395,21.0931778 12.5808011,20.8256103 12.74328,21.8126789 C12.8840265,22.6676643 12.527573,22.9546811 12.527573,22.9546811 Z" id="Path" fill="#14B4AC" opacity="0.66667"></path>
            <path d="M11.6097032,23.5267465 C11.6675975,23.2180605 11.6228794,22.8989091 11.4823768,22.6180216 C11.366477,22.3178839 11.0462421,22.1499587 10.7334492,22.2252978 L10.784727,22.0079854 C10.784727,22.0079854 11.5983941,21.7600395 11.7365303,22.5495124 C11.8660686,23.2898541 11.6097032,23.5267465 11.6097032,23.5267465 Z" id="Path" fill="#14B4AC" opacity="0.77778"></path>
            <path d="M10.6918276,24.0988059 C10.7270395,23.8922497 10.6731632,23.87286 10.5142638,23.3962924 C10.4820926,23.2844265 10.4032379,23.1918707 10.2979026,23.1423384 C10.1925674,23.0928061 10.0709871,23.0911102 9.96431135,23.1376854 L10.0229146,22.9228108 C10.0229146,22.9228108 10.6169146,22.6942665 10.7297805,23.2863697 C10.848973,23.9118832 10.6918276,24.0988059 10.6918276,24.0988059 Z" id="Path" fill="#14B4AC" opacity="0.88889"></path>
            <path d="M9.77394595,24.6708714 C9.80302162,24.5003 9.67441081,24.5690946 9.54613892,24.1745692 C9.43984919,23.8476314 9.19516162,24.050073 9.19516162,24.050073 L9.26108432,23.8376422 C9.26108432,23.8376422 9.63701676,23.6281486 9.72301892,24.023227 C9.79422024,24.231384 9.8117368,24.4541438 9.77394595,24.6708714 L9.77394595,24.6708714 Z" id="Path" fill="#14B4AC"></path>
            <path d="M18.3775276,19.2230232 C18.4618173,18.7285524 19.0058178,18.003593 18.6018919,16.870807 C18.1777022,15.6811957 16.1174319,15.6041778 16.1174319,15.6041778 L16.3371822,15.516273 C16.3371822,15.516273 18.5127205,14.8078968 18.8130741,16.9813065 C19.0262422,18.5237265 18.3775276,19.2230232 18.3775276,19.2230232 Z" id="Path" fill="#000000" opacity="0.5"></path>
            <path d="M17.4215741,19.8283384 C17.4997335,19.3698584 17.9761227,18.7181232 17.6028243,17.6673676 C17.2139595,16.5736108 15.3556135,16.5190092 15.3556135,16.5190092 L15.5753697,16.4270432 C15.5753697,16.4270432 17.5370622,15.7933541 17.8136081,17.7691681 C17.9859035,18.4799781 17.8430036,19.2305644 17.4215741,19.8283384 Z" id="Path" fill="#000000" opacity="0.44444"></path>
            <path d="M16.4656205,20.4336595 C16.5376438,20.0111643 16.9464276,19.4326535 16.6037568,18.4639281 C16.2502108,17.46602 14.5938011,17.4338405 14.5938011,17.4338405 L14.8135573,17.3378016 C14.8135573,17.3378016 16.5614097,16.7788054 16.8141303,18.5570297 C16.9779511,19.2034399 16.8506042,19.8891681 16.4656205,20.4336595 L16.4656205,20.4336595 Z" id="Path" fill="#000000" opacity="0.38889"></path>
            <path d="M15.509667,21.0389746 C15.7504087,20.4759754 15.7840712,19.8459284 15.6046892,19.2604827 C15.2864681,18.3584292 13.8319886,18.3486719 13.8319886,18.3486719 L14.0517389,18.24856 C14.4323969,18.1025622 14.8594629,18.1432814 15.2056723,18.3585835 C15.5518816,18.5738855 15.7772649,18.938914 15.8146584,19.3448914 C15.9683926,19.9269076 15.8567339,20.5471192 15.509667,21.0389746 Z" id="Path" fill="#000000" opacity="0.33333"></path>
            <path d="M14.5537195,21.6442897 C14.7561929,21.1375735 14.7745594,20.5758985 14.6056216,20.0570373 C14.3227195,19.2508384 13.0701703,19.2634973 13.0701703,19.2634973 L13.2899265,19.1593184 C13.6231671,19.0368548 13.9944849,19.0770889 14.2937603,19.2680887 C14.5930356,19.4590885 14.7859088,19.7789253 14.8151805,20.132747 C14.959977,20.6502658 14.8639385,21.2054779 14.5537195,21.6442897 Z" id="Path" fill="#000000" opacity="0.27778"></path>
            <path d="M13.5977838,22.2496049 C13.7615569,21.7991967 13.7646636,21.3060335 13.6065778,20.8535978 C13.3589946,20.1432476 12.3083757,20.1783286 12.3083757,20.1783286 L12.5281259,20.0700768 C12.8139196,19.9712688 13.1294164,20.0110557 13.3817313,20.1777237 C13.6340461,20.3443917 13.7944529,20.6189657 13.8157265,20.9206086 C13.9681092,21.89022 13.5977838,22.2496049 13.5977838,22.2496049 Z" id="Path" fill="#000000" opacity="0.22222"></path>
            <path d="M12.6418124,22.85492 C12.766235,22.4609058 12.7541435,22.0364446 12.6074924,21.6501524 C12.3952222,21.0356568 11.5465395,21.0931541 11.5465395,21.0931541 L11.7662957,20.9808351 C12.0045772,20.9058954 12.2641182,20.9452971 12.4694227,21.087579 C12.6747271,21.2298609 12.8027423,21.4590467 12.8162308,21.7084703 C12.9569773,22.5634735 12.6418124,22.85492 12.6418124,22.85492 Z" id="Path" fill="#000000" opacity="0.16667"></path>
            <path d="M11.6858649,23.4602351 C11.7699066,23.1228714 11.7427453,22.7673865 11.6084249,22.446707 C11.4314854,21.9280659 10.784727,22.0079854 10.784727,22.0079854 L11.0044832,21.8915935 C11.1951,21.8409167 11.3984235,21.88003 11.5566341,21.9978107 C11.7148448,22.1155914 11.8106329,22.2991532 11.8167589,22.4962962 C11.9462973,23.2366676 11.6858649,23.4602351 11.6858649,23.4602351 Z" id="Path" fill="#000000" opacity="0.11111"></path>
            <path d="M10.7299114,24.0655562 C10.7719062,23.7855674 10.729954,23.4994133 10.6093573,23.2432616 C10.5255138,23.0014074 10.2717407,22.8627377 10.0229146,22.9228108 L10.2426649,22.8023578 C10.2426649,22.8023578 10.7044389,22.6920843 10.8172811,23.2841876 C10.9364973,23.9097011 10.7299114,24.0655562 10.7299114,24.0655562 Z" id="Path" fill="#000000" opacity="0.05556"></path>
            <path d="M9.77394595,24.6708714 C9.80302162,24.5003 9.73854973,24.4343476 9.61027784,24.0398222 C9.50398216,23.7128843 9.26108432,23.83766 9.26108432,23.83766 L9.48084054,23.7131341 C9.48084054,23.7131341 9.73179514,23.6769886 9.8177973,24.072067 C9.92887351,24.582253 9.77394595,24.6708714 9.77394595,24.6708714 Z" id="Path" fill="#000000" opacity="0"></path>
            <path d="M14.5628465,13.4396989 C14.5193043,13.3645957 14.4486843,13.3238362 14.4051659,13.3486605 L13.9591546,13.6029508 C13.9156124,13.6277751 13.9156124,13.7087886 13.9591546,13.7838919 C14.0026968,13.8589951 14.0733168,13.8997546 14.1168351,13.8749303 L14.5628465,13.62064 C14.6063827,13.5958097 14.6063827,13.5148022 14.5628465,13.4396989 Z" id="Path" fill="#85D3EA"></path>
            <path d="M10.1331584,11.5262162 C10.0896162,11.5510405 10.0896162,11.6320541 10.1331584,11.7071514 L10.5791697,12.4764497 C10.6227119,12.551553 10.6933319,12.5923124 10.7368562,12.5674881 C10.7803805,12.5426638 10.7803984,12.4616503 10.7368562,12.386553 L10.2908449,11.6172546 C10.2473027,11.5421751 10.1767065,11.5014157 10.1331584,11.5262162 Z" id="Path" fill="#85D3EA"></path>
            <path d="M14.5628465,14.7142719 C14.5193043,14.6391686 14.4486843,14.5984092 14.4051659,14.6232335 L13.9591546,14.8775238 C13.9156124,14.9023541 13.9156124,14.9833616 13.9591546,15.0584649 C14.0026968,15.1335681 14.0733168,15.1743276 14.1168351,15.1495032 L14.5628465,14.895213 C14.6063827,14.8703886 14.6063827,14.7893514 14.5628465,14.7142719 Z" id="Path" fill="#85D3EA"></path>
            <path d="M10.1331584,12.800813 C10.0896162,12.8256373 10.0896162,12.9066508 10.1331584,12.9817481 L10.5791697,13.7510465 C10.6227119,13.8261497 10.6933319,13.8669092 10.7368562,13.8420849 C10.7803805,13.8172605 10.7803984,13.736247 10.7368562,13.6611497 L10.2908449,12.8918514 C10.2473027,12.8167481 10.1767065,12.7759886 10.1331584,12.800813 Z" id="Path" fill="#85D3EA"></path>
            <path d="M9.84572541,5.92989189 C9.87386197,6.08322161 9.97306413,6.21411446 10.1130789,6.28265297 C10.2497881,6.34704757 10.3517849,6.29350432 10.3408741,6.16306216 C10.3127504,6.00974287 10.2135567,5.87885773 10.0735503,5.81033081 C9.9368173,5.74596 9.83482054,5.79947351 9.84572541,5.92989189 Z" id="Path" fill="#85D3EA" style="mix-blend-mode: screen;"></path>
            <path d="M16.3248146,8.73418432 C16.3529494,8.88751483 16.4521521,9.0184084 16.5921681,9.08694541 C16.7288714,9.15134 16.8308741,9.09779676 16.8199632,8.96736054 C16.7918404,8.81403943 16.6926468,8.68315212 16.5526395,8.61462324 C16.4159065,8.55023459 16.3138919,8.60374216 16.3248146,8.73418432 Z" id="Path" fill="#85D3EA" style="mix-blend-mode: screen;"></path>
            <path d="M9.84572541,5.16077189 C9.87386202,5.31410304 9.97306388,5.44499769 10.1130789,5.51353892 C10.2497881,5.57792757 10.3517849,5.52439027 10.3408741,5.39394811 C10.3127504,5.24062882 10.2135567,5.10974368 10.0735503,5.04121676 C9.9368173,4.97682216 9.83482054,5.03033568 9.84572541,5.16077189 Z" id="Path" fill="#85D3EA" style="mix-blend-mode: screen;"></path>
            <path d="M16.3248146,7.96504649 C16.3529494,8.11837699 16.4521521,8.24927056 16.5921681,8.31780757 C16.7288714,8.38220216 16.8308741,8.32865892 16.8199632,8.19821676 C16.7918396,8.04489747 16.6926459,7.91401232 16.5526395,7.84548541 C16.4159065,7.78109081 16.3138919,7.83460432 16.3248146,7.96504649 Z" id="Path" fill="#85D3EA" style="mix-blend-mode: screen;"></path>
        </g>
        <circle id="Oval-Copy-3" fill-opacity="0" fill="url(#radialGradient-8)" opacity="0.08" cx="24" cy="34" r="14"></circle>
        <circle id="Oval-Copy-5" fill="url(#radialGradient-8)" opacity="0.12" cx="24" cy="25.5" r="15.5"></circle>
        <circle id="Oval" fill-opacity="0.24" fill="url(#radialGradient-9)" cx="25" cy="27" r="9"></circle>
        <circle id="Oval-Copy" fill="url(#radialGradient-9)" opacity="0.5" cx="20" cy="9" r="2"></circle>
        <circle id="Oval-Copy-2" fill="url(#radialGradient-9)" opacity="0.5" cx="26" cy="11" r="2"></circle>
        <circle id="Oval-Copy-2" fill="url(#radialGradient-9)" opacity="0.5" cx="25" cy="12" r="5"></circle>
        <circle id="Oval-Copy-4" fill="url(#radialGradient-9)" opacity="0.24" cx="20" cy="10" r="5"></circle>
        <circle id="Oval-Copy-6" fill="url(#radialGradient-9)" opacity="0.12" cx="28" cy="20" r="10"></circle>
    </g>
</svg>